<svg version="1.1" xmlns="http://www.w3.org/2000/svg" viewBox="0 0 1080.4921613420756 868.2291158040362" width="1080.4921613420756" height="868.2291158040362">
  <!-- svg-source:excalidraw -->
  
  <defs>
    <style class="style-fonts">
      @font-face {
        font-family: "Virgil";
        src: url("https://excalidraw.com/Virgil.woff2");
      }
      @font-face {
        font-family: "Cascadia";
        src: url("https://excalidraw.com/Cascadia.woff2");
      }
      @font-face {
        font-family: "Assistant";
        src: url("https://excalidraw.com/Assistant-Regular.woff2");
      }
    </style>
    
  </defs>
  <g stroke-linecap="round" transform="translate(10 10) rotate(0 530.2460806710378 424.1145579020181)"><path d="M32 0 C366.84 0, 701.67 0, 1028.49 0 C1049.83 0, 1060.49 10.67, 1060.49 32 C1060.49 202.82, 1060.49 373.64, 1060.49 816.23 C1060.49 837.56, 1049.83 848.23, 1028.49 848.23 C663.89 848.23, 299.29 848.23, 32 848.23 C10.67 848.23, 0 837.56, 0 816.23 C0 656.78, 0 497.33, 0 32 C0 10.67, 10.67 0, 32 0" stroke="none" stroke-width="0" fill="#fff9db"></path><path d="M32 0 C428.11 0, 824.21 0, 1028.49 0 M32 0 C233.18 0, 434.37 0, 1028.49 0 M1028.49 0 C1049.83 0, 1060.49 10.67, 1060.49 32 M1028.49 0 C1049.83 0, 1060.49 10.67, 1060.49 32 M1060.49 32 C1060.49 332.86, 1060.49 633.71, 1060.49 816.23 M1060.49 32 C1060.49 238.11, 1060.49 444.21, 1060.49 816.23 M1060.49 816.23 C1060.49 837.56, 1049.83 848.23, 1028.49 848.23 M1060.49 816.23 C1060.49 837.56, 1049.83 848.23, 1028.49 848.23 M1028.49 848.23 C747.71 848.23, 466.92 848.23, 32 848.23 M1028.49 848.23 C773.17 848.23, 517.85 848.23, 32 848.23 M32 848.23 C10.67 848.23, 0 837.56, 0 816.23 M32 848.23 C10.67 848.23, 0 837.56, 0 816.23 M0 816.23 C0 555.08, 0 293.93, 0 32 M0 816.23 C0 612.13, 0 408.03, 0 32 M0 32 C0 10.67, 10.67 0, 32 0 M0 32 C0 10.67, 10.67 0, 32 0" stroke="#1e1e1e" stroke-width="1" fill="none"></path></g><g stroke-linecap="round" transform="translate(39.64863368443184 93.98547217959458) rotate(0 245.3168487548828 354.64411417643214)"><path d="M32 0 C196.69 0, 361.37 0, 458.63 0 C479.97 0, 490.63 10.67, 490.63 32 C490.63 268.96, 490.63 505.92, 490.63 677.29 C490.63 698.62, 479.97 709.29, 458.63 709.29 C335.25 709.29, 211.86 709.29, 32 709.29 C10.67 709.29, 0 698.62, 0 677.29 C0 442.48, 0 207.68, 0 32 C0 10.67, 10.67 0, 32 0" stroke="none" stroke-width="0" fill="#a5d8ff"></path><path d="M32 0 C122.84 0, 213.68 0, 458.63 0 M32 0 C146.58 0, 261.16 0, 458.63 0 M458.63 0 C479.97 0, 490.63 10.67, 490.63 32 M458.63 0 C479.97 0, 490.63 10.67, 490.63 32 M490.63 32 C490.63 237.73, 490.63 443.46, 490.63 677.29 M490.63 32 C490.63 237.11, 490.63 442.22, 490.63 677.29 M490.63 677.29 C490.63 698.62, 479.97 709.29, 458.63 709.29 M490.63 677.29 C490.63 698.62, 479.97 709.29, 458.63 709.29 M458.63 709.29 C359.82 709.29, 261 709.29, 32 709.29 M458.63 709.29 C345.27 709.29, 231.9 709.29, 32 709.29 M32 709.29 C10.67 709.29, 0 698.62, 0 677.29 M32 709.29 C10.67 709.29, 0 698.62, 0 677.29 M0 677.29 C0 525.19, 0 373.09, 0 32 M0 677.29 C0 499.38, 0 321.47, 0 32 M0 32 C0 10.67, 10.67 0, 32 0 M0 32 C0 10.67, 10.67 0, 32 0" stroke="#1e1e1e" stroke-width="1" fill="none"></path></g><g stroke-linecap="round" transform="translate(60.60352870396218 120.78239804222449) rotate(0 228.33333333333394 40.455729166666515)"><path d="M20.23 0 C162.44 0, 304.66 0, 436.44 0 C449.92 0, 456.67 6.74, 456.67 20.23 C456.67 31.24, 456.67 42.25, 456.67 60.68 C456.67 74.17, 449.92 80.91, 436.44 80.91 C330.86 80.91, 225.28 80.91, 20.23 80.91 C6.74 80.91, 0 74.17, 0 60.68 C0 50.33, 0 39.97, 0 20.23 C0 6.74, 6.74 0, 20.23 0" stroke="none" stroke-width="0" fill="#ffec99"></path><path d="M20.23 0 C178.77 0, 337.32 0, 436.44 0 M20.23 0 C156.73 0, 293.24 0, 436.44 0 M436.44 0 C449.92 0, 456.67 6.74, 456.67 20.23 M436.44 0 C449.92 0, 456.67 6.74, 456.67 20.23 M456.67 20.23 C456.67 35.17, 456.67 50.11, 456.67 60.68 M456.67 20.23 C456.67 28.4, 456.67 36.58, 456.67 60.68 M456.67 60.68 C456.67 74.17, 449.92 80.91, 436.44 80.91 M456.67 60.68 C456.67 74.17, 449.92 80.91, 436.44 80.91 M436.44 80.91 C307.09 80.91, 177.74 80.91, 20.23 80.91 M436.44 80.91 C352.76 80.91, 269.09 80.91, 20.23 80.91 M20.23 80.91 C6.74 80.91, 0 74.17, 0 60.68 M20.23 80.91 C6.74 80.91, 0 74.17, 0 60.68 M0 60.68 C0 46.06, 0 31.43, 0 20.23 M0 60.68 C0 44.61, 0 28.54, 0 20.23 M0 20.23 C0 6.74, 6.74 0, 20.23 0 M0 20.23 C0 6.74, 6.74 0, 20.23 0" stroke="#1e1e1e" stroke-width="1" fill="none"></path></g><g transform="translate(135.9169340587805 143.73812720889146) rotate(0 153.01992797851562 17.5)"><text x="153.01992797851562" y="0" font-family="Virgil, Segoe UI Emoji" font-size="28px" fill="#1e1e1e" text-anchor="middle" style="white-space: pre;" direction="ltr" dominant-baseline="text-before-edge">The Yellow Brick Road</text></g><g transform="translate(434.90996545748476 19.30926368350083) rotate(0 120.42106628417969 29.474830627441406)"><text x="120.42106628417969" y="0" font-family="Virgil, Segoe UI Emoji" font-size="47.1597290039062px" fill="#1e1e1e" text-anchor="middle" style="white-space: pre;" direction="ltr" dominant-baseline="text-before-edge">Onboarding</text></g><g stroke-linecap="round" transform="translate(555.03485906692 91.60077049618667) rotate(0 245.3168487548828 354.64411417643214)"><path d="M32 0 C184.47 0, 336.94 0, 458.63 0 C479.97 0, 490.63 10.67, 490.63 32 C490.63 213.64, 490.63 395.29, 490.63 677.29 C490.63 698.62, 479.97 709.29, 458.63 709.29 C305.71 709.29, 152.78 709.29, 32 709.29 C10.67 709.29, 0 698.62, 0 677.29 C0 500.22, 0 323.15, 0 32 C0 10.67, 10.67 0, 32 0" stroke="none" stroke-width="0" fill="#a5d8ff"></path><path d="M32 0 C176.77 0, 321.55 0, 458.63 0 M32 0 C186.76 0, 341.53 0, 458.63 0 M458.63 0 C479.97 0, 490.63 10.67, 490.63 32 M458.63 0 C479.97 0, 490.63 10.67, 490.63 32 M490.63 32 C490.63 190.72, 490.63 349.45, 490.63 677.29 M490.63 32 C490.63 285.7, 490.63 539.39, 490.63 677.29 M490.63 677.29 C490.63 698.62, 479.97 709.29, 458.63 709.29 M490.63 677.29 C490.63 698.62, 479.97 709.29, 458.63 709.29 M458.63 709.29 C329.77 709.29, 200.9 709.29, 32 709.29 M458.63 709.29 C373.15 709.29, 287.66 709.29, 32 709.29 M32 709.29 C10.67 709.29, 0 698.62, 0 677.29 M32 709.29 C10.67 709.29, 0 698.62, 0 677.29 M0 677.29 C0 461.78, 0 246.28, 0 32 M0 677.29 C0 429.43, 0 181.58, 0 32 M0 32 C0 10.67, 10.67 0, 32 0 M0 32 C0 10.67, 10.67 0, 32 0" stroke="#1e1e1e" stroke-width="1" fill="none"></path></g><g stroke-linecap="round" transform="translate(132.5999886649006 677.0146173733901) rotate(0 149.83507792154978 26.547535760849314)"><path d="M13.27 0 C108.91 0, 204.54 0, 286.4 0 C295.25 0, 299.67 4.42, 299.67 13.27 C299.67 19.74, 299.67 26.2, 299.67 39.82 C299.67 48.67, 295.25 53.1, 286.4 53.1 C201.8 53.1, 117.21 53.1, 13.27 53.1 C4.42 53.1, 0 48.67, 0 39.82 C0 30.49, 0 21.15, 0 13.27 C0 4.42, 4.42 0, 13.27 0" stroke="none" stroke-width="0" fill="#ffec99"></path><path d="M13.27 0 C89.97 0, 166.68 0, 286.4 0 M13.27 0 C85.52 0, 157.78 0, 286.4 0 M286.4 0 C295.25 0, 299.67 4.42, 299.67 13.27 M286.4 0 C295.25 0, 299.67 4.42, 299.67 13.27 M299.67 13.27 C299.67 18.59, 299.67 23.9, 299.67 39.82 M299.67 13.27 C299.67 21.2, 299.67 29.13, 299.67 39.82 M299.67 39.82 C299.67 48.67, 295.25 53.1, 286.4 53.1 M299.67 39.82 C299.67 48.67, 295.25 53.1, 286.4 53.1 M286.4 53.1 C220.4 53.1, 154.41 53.1, 13.27 53.1 M286.4 53.1 C226.48 53.1, 166.56 53.1, 13.27 53.1 M13.27 53.1 C4.42 53.1, 0 48.67, 0 39.82 M13.27 53.1 C4.42 53.1, 0 48.67, 0 39.82 M0 39.82 C0 34.36, 0 28.91, 0 13.27 M0 39.82 C0 29.33, 0 18.83, 0 13.27 M0 13.27 C0 4.42, 4.42 0, 13.27 0 M0 13.27 C0 4.42, 4.42 0, 13.27 0" stroke="#1e1e1e" stroke-width="1" fill="none"></path></g><g transform="translate(261.19958532424334 692.2131358344168) rotate(0 21.23548126220703 11.349017299823117)"><text x="21.23548126220703" y="0" font-family="Virgil, Segoe UI Emoji" font-size="18.158427679716656px" fill="#1e1e1e" text-anchor="middle" style="white-space: pre;" direction="ltr" dominant-baseline="text-before-edge">Login</text></g><g transform="translate(212.63053676060372 810.7997930617557) rotate(0 51.939971923828125 17.5)"><text x="51.939971923828125" y="0" font-family="Virgil, Segoe UI Emoji" font-size="28px" fill="#1e1e1e" text-anchor="middle" style="white-space: pre;" direction="ltr" dominant-baseline="text-before-edge">01-Login</text></g><g transform="translate(734.5891828991134 817.1017746698299) rotate(0 68.30596160888672 17.5)"><text x="68.30596160888672" y="0" font-family="Virgil, Segoe UI Emoji" font-size="28px" fill="#1e1e1e" text-anchor="middle" style="white-space: pre;" direction="ltr" dominant-baseline="text-before-edge">02-Splash</text></g><g stroke-linecap="round" transform="translate(588.528791155135 115.52193051292943) rotate(0 211.9488525390625 52.75611877441406)"><path d="M26.38 0 C161.45 0, 296.52 0, 397.52 0 C415.11 0, 423.9 8.79, 423.9 26.38 C423.9 36.96, 423.9 47.55, 423.9 79.13 C423.9 96.72, 415.11 105.51, 397.52 105.51 C251.35 105.51, 105.17 105.51, 26.38 105.51 C8.79 105.51, 0 96.72, 0 79.13 C0 64.79, 0 50.45, 0 26.38 C0 8.79, 8.79 0, 26.38 0" stroke="none" stroke-width="0" fill="#ffec99"></path><path d="M26.38 0 C124.86 0, 223.35 0, 397.52 0 M26.38 0 C140.14 0, 253.9 0, 397.52 0 M397.52 0 C415.11 0, 423.9 8.79, 423.9 26.38 M397.52 0 C415.11 0, 423.9 8.79, 423.9 26.38 M423.9 26.38 C423.9 39.65, 423.9 52.92, 423.9 79.13 M423.9 26.38 C423.9 37.65, 423.9 48.92, 423.9 79.13 M423.9 79.13 C423.9 96.72, 415.11 105.51, 397.52 105.51 M423.9 79.13 C423.9 96.72, 415.11 105.51, 397.52 105.51 M397.52 105.51 C315.32 105.51, 233.12 105.51, 26.38 105.51 M397.52 105.51 C276.72 105.51, 155.93 105.51, 26.38 105.51 M26.38 105.51 C8.79 105.51, 0 96.72, 0 79.13 M26.38 105.51 C8.79 105.51, 0 96.72, 0 79.13 M0 79.13 C0 64.54, 0 49.94, 0 26.38 M0 79.13 C0 58.51, 0 37.88, 0 26.38 M0 26.38 C0 8.79, 8.79 0, 26.38 0 M0 26.38 C0 8.79, 8.79 0, 26.38 0" stroke="#1e1e1e" stroke-width="1" fill="none"></path></g><g transform="translate(647.4577157156818 150.7780492873435) rotate(0 153.01992797851562 17.5)"><text x="153.01992797851562" y="0" font-family="Virgil, Segoe UI Emoji" font-size="28px" fill="#1e1e1e" text-anchor="middle" style="white-space: pre;" direction="ltr" dominant-baseline="text-before-edge">The Yellow Brick Road</text></g><g transform="translate(614.4692717052649 465.8221901988436) rotate(0 194.03790283203125 16.225729735492678)"><text x="194.03790283203125" y="0" font-family="Virgil, Segoe UI Emoji" font-size="25.961167576788363px" fill="#1e1e1e" text-anchor="middle" style="white-space: pre;" direction="ltr" dominant-baseline="text-before-edge">Life is more than a piggy bank</text></g></svg>