<svg version="1.1" xmlns="http://www.w3.org/2000/svg" viewBox="0 0 1000.1843663030486 862.4790140787763" width="1000.1843663030486" height="862.4790140787763">
  <!-- svg-source:excalidraw -->
  
  <defs>
    <style class="style-fonts">
      @font-face {
        font-family: "Virgil";
        src: url("https://excalidraw.com/Virgil.woff2");
      }
      @font-face {
        font-family: "Cascadia";
        src: url("https://excalidraw.com/Cascadia.woff2");
      }
      @font-face {
        font-family: "Assistant";
        src: url("https://excalidraw.com/Assistant-Regular.woff2");
      }
    </style>
    
  </defs>
  <g stroke-linecap="round" transform="translate(444.22081189277924 10) rotate(0 272.9817772051347 421.2395070393882)"><path d="M32 0 C224.57 0, 417.15 0, 513.96 0 C535.3 0, 545.96 10.67, 545.96 32 C545.96 215.69, 545.96 399.38, 545.96 810.48 C545.96 831.81, 535.3 842.48, 513.96 842.48 C345.84 842.48, 177.72 842.48, 32 842.48 C10.67 842.48, 0 831.81, 0 810.48 C0 606.23, 0 401.98, 0 32 C0 10.67, 10.67 0, 32 0" stroke="none" stroke-width="0" fill="#fff9db"></path><path d="M32 0 C220.98 0, 409.97 0, 513.96 0 M32 0 C139.83 0, 247.67 0, 513.96 0 M513.96 0 C535.3 0, 545.96 10.67, 545.96 32 M513.96 0 C535.3 0, 545.96 10.67, 545.96 32 M545.96 32 C545.96 286.32, 545.96 540.63, 545.96 810.48 M545.96 32 C545.96 313.29, 545.96 594.59, 545.96 810.48 M545.96 810.48 C545.96 831.81, 535.3 842.48, 513.96 842.48 M545.96 810.48 C545.96 831.81, 535.3 842.48, 513.96 842.48 M513.96 842.48 C372.41 842.48, 230.87 842.48, 32 842.48 M513.96 842.48 C390.84 842.48, 267.72 842.48, 32 842.48 M32 842.48 C10.67 842.48, 0 831.81, 0 810.48 M32 842.48 C10.67 842.48, 0 831.81, 0 810.48 M0 810.48 C0 504.86, 0 199.24, 0 32 M0 810.48 C0 527.12, 0 243.76, 0 32 M0 32 C0 10.67, 10.67 0, 32 0 M0 32 C0 10.67, 10.67 0, 32 0" stroke="#1e1e1e" stroke-width="1" fill="none"></path></g><g transform="translate(608.8480985872029 39.94100932586025) rotate(0 138.76242065429688 29.474830627441406)"><text x="138.76242065429688" y="0" font-family="Virgil, Segoe UI Emoji" font-size="47.1597290039062px" fill="#1e1e1e" text-anchor="middle" style="white-space: pre;" direction="ltr" dominant-baseline="text-before-edge">Home Screen</text></g><g stroke-linecap="round" transform="translate(466.542282104494 118.54329935709666) rotate(0 245.3168487548828 354.64411417643214)"><path d="M32 0 C171.33 0, 310.65 0, 458.63 0 C479.97 0, 490.63 10.67, 490.63 32 C490.63 210.81, 490.63 389.62, 490.63 677.29 C490.63 698.62, 479.97 709.29, 458.63 709.29 C326.16 709.29, 193.7 709.29, 32 709.29 C10.67 709.29, 0 698.62, 0 677.29 C0 520.54, 0 363.8, 0 32 C0 10.67, 10.67 0, 32 0" stroke="none" stroke-width="0" fill="#a5d8ff"></path><path d="M32 0 C171.18 0, 310.35 0, 458.63 0 M32 0 C174.54 0, 317.07 0, 458.63 0 M458.63 0 C479.97 0, 490.63 10.67, 490.63 32 M458.63 0 C479.97 0, 490.63 10.67, 490.63 32 M490.63 32 C490.63 171.47, 490.63 310.94, 490.63 677.29 M490.63 32 C490.63 204.93, 490.63 377.87, 490.63 677.29 M490.63 677.29 C490.63 698.62, 479.97 709.29, 458.63 709.29 M490.63 677.29 C490.63 698.62, 479.97 709.29, 458.63 709.29 M458.63 709.29 C368.45 709.29, 278.26 709.29, 32 709.29 M458.63 709.29 C309.59 709.29, 160.55 709.29, 32 709.29 M32 709.29 C10.67 709.29, 0 698.62, 0 677.29 M32 709.29 C10.67 709.29, 0 698.62, 0 677.29 M0 677.29 C0 535.29, 0 393.29, 0 32 M0 677.29 C0 440.19, 0 203.09, 0 32 M0 32 C0 10.67, 10.67 0, 32 0 M0 32 C0 10.67, 10.67 0, 32 0" stroke="#1e1e1e" stroke-width="1" fill="none"></path></g><g stroke-linecap="round" transform="translate(499.484375 160.6249745686855) rotate(0 219.109375 4.11981201171875)"><path d="M2.06 0 C142.37 0, 282.68 0, 436.16 0 C437.53 0, 438.22 0.69, 438.22 2.06 C438.22 3.1, 438.22 4.14, 438.22 6.18 C438.22 7.55, 437.53 8.24, 436.16 8.24 C341.11 8.24, 246.06 8.24, 2.06 8.24 C0.69 8.24, 0 7.55, 0 6.18 C0 4.83, 0 3.49, 0 2.06 C0 0.69, 0.69 0, 2.06 0" stroke="none" stroke-width="0" fill="#1e1e1e"></path><path d="M2.06 0 C134.4 0, 266.74 0, 436.16 0 M2.06 0 C102.04 0, 202.02 0, 436.16 0 M436.16 0 C437.53 0, 438.22 0.69, 438.22 2.06 M436.16 0 C437.53 0, 438.22 0.69, 438.22 2.06 M438.22 2.06 C438.22 3.37, 438.22 4.68, 438.22 6.18 M438.22 2.06 C438.22 3.29, 438.22 4.53, 438.22 6.18 M438.22 6.18 C438.22 7.55, 437.53 8.24, 436.16 8.24 M438.22 6.18 C438.22 7.55, 437.53 8.24, 436.16 8.24 M436.16 8.24 C326.5 8.24, 216.85 8.24, 2.06 8.24 M436.16 8.24 C296.89 8.24, 157.62 8.24, 2.06 8.24 M2.06 8.24 C0.69 8.24, 0 7.55, 0 6.18 M2.06 8.24 C0.69 8.24, 0 7.55, 0 6.18 M0 6.18 C0 5.27, 0 4.35, 0 2.06 M0 6.18 C0 5.17, 0 4.15, 0 2.06 M0 2.06 C0 0.69, 0.69 0, 2.06 0 M0 2.06 C0 0.69, 0.69 0, 2.06 0" stroke="#1e1e1e" stroke-width="1" fill="none"></path></g><g stroke-linecap="round" transform="translate(515.5989990234375 147.12494405110738) rotate(0 17.651031494140625 17.651031494140625)"><path d="M35.3 17.65 C35.3 18.67, 35.21 19.71, 35.03 20.72 C34.86 21.72, 34.59 22.73, 34.24 23.69 C33.89 24.65, 33.45 25.59, 32.94 26.48 C32.43 27.36, 31.83 28.21, 31.17 29 C30.52 29.78, 29.78 30.52, 29 31.17 C28.21 31.83, 27.36 32.43, 26.48 32.94 C25.59 33.45, 24.65 33.89, 23.69 34.24 C22.73 34.59, 21.72 34.86, 20.72 35.03 C19.71 35.21, 18.67 35.3, 17.65 35.3 C16.63 35.3, 15.59 35.21, 14.59 35.03 C13.58 34.86, 12.57 34.59, 11.61 34.24 C10.65 33.89, 9.71 33.45, 8.83 32.94 C7.94 32.43, 7.09 31.83, 6.31 31.17 C5.52 30.52, 4.79 29.78, 4.13 29 C3.47 28.21, 2.88 27.36, 2.36 26.48 C1.85 25.59, 1.41 24.65, 1.06 23.69 C0.72 22.73, 0.45 21.72, 0.27 20.72 C0.09 19.71, 0 18.67, 0 17.65 C0 16.63, 0.09 15.59, 0.27 14.59 C0.45 13.58, 0.72 12.57, 1.06 11.61 C1.41 10.65, 1.85 9.71, 2.36 8.83 C2.88 7.94, 3.47 7.09, 4.13 6.31 C4.79 5.52, 5.52 4.79, 6.31 4.13 C7.09 3.47, 7.94 2.88, 8.83 2.36 C9.71 1.85, 10.65 1.41, 11.61 1.06 C12.57 0.72, 13.58 0.45, 14.59 0.27 C15.59 0.09, 16.63 0, 17.65 0 C18.67 0, 19.71 0.09, 20.72 0.27 C21.72 0.45, 22.73 0.72, 23.69 1.06 C24.65 1.41, 25.59 1.85, 26.48 2.36 C27.36 2.88, 28.21 3.47, 29 4.13 C29.78 4.79, 30.52 5.52, 31.17 6.31 C31.83 7.09, 32.43 7.94, 32.94 8.83 C33.45 9.71, 33.89 10.65, 34.24 11.61 C34.59 12.57, 34.86 13.58, 35.03 14.59 C35.21 15.59, 35.26 17.14, 35.3 17.65 C35.35 18.16, 35.35 17.14, 35.3 17.65" stroke="none" stroke-width="0" fill="#b2f2bb"></path><path d="M35.3 17.65 C35.3 18.67, 35.21 19.71, 35.03 20.72 C34.86 21.72, 34.59 22.73, 34.24 23.69 C33.89 24.65, 33.45 25.59, 32.94 26.48 C32.43 27.36, 31.83 28.21, 31.17 29 C30.52 29.78, 29.78 30.52, 29 31.17 C28.21 31.83, 27.36 32.43, 26.48 32.94 C25.59 33.45, 24.65 33.89, 23.69 34.24 C22.73 34.59, 21.72 34.86, 20.72 35.03 C19.71 35.21, 18.67 35.3, 17.65 35.3 C16.63 35.3, 15.59 35.21, 14.59 35.03 C13.58 34.86, 12.57 34.59, 11.61 34.24 C10.65 33.89, 9.71 33.45, 8.83 32.94 C7.94 32.43, 7.09 31.83, 6.31 31.17 C5.52 30.52, 4.79 29.78, 4.13 29 C3.47 28.21, 2.88 27.36, 2.36 26.48 C1.85 25.59, 1.41 24.65, 1.06 23.69 C0.72 22.73, 0.45 21.72, 0.27 20.72 C0.09 19.71, 0 18.67, 0 17.65 C0 16.63, 0.09 15.59, 0.27 14.59 C0.45 13.58, 0.72 12.57, 1.06 11.61 C1.41 10.65, 1.85 9.71, 2.36 8.83 C2.88 7.94, 3.47 7.09, 4.13 6.31 C4.79 5.52, 5.52 4.79, 6.31 4.13 C7.09 3.47, 7.94 2.88, 8.83 2.36 C9.71 1.85, 10.65 1.41, 11.61 1.06 C12.57 0.72, 13.58 0.45, 14.59 0.27 C15.59 0.09, 16.63 0, 17.65 0 C18.67 0, 19.71 0.09, 20.72 0.27 C21.72 0.45, 22.73 0.72, 23.69 1.06 C24.65 1.41, 25.59 1.85, 26.48 2.36 C27.36 2.88, 28.21 3.47, 29 4.13 C29.78 4.79, 30.52 5.52, 31.17 6.31 C31.83 7.09, 32.43 7.94, 32.94 8.83 C33.45 9.71, 33.89 10.65, 34.24 11.61 C34.59 12.57, 34.86 13.58, 35.03 14.59 C35.21 15.59, 35.26 17.14, 35.3 17.65 C35.35 18.16, 35.35 17.14, 35.3 17.65" stroke="#1e1e1e" stroke-width="1" fill="none"></path></g><g stroke-linecap="round" transform="translate(517.2083435058594 143.96350606282613) rotate(0 17.651031494140625 17.651031494140625)"><path d="M35.3 17.65 C35.3 18.67, 35.21 19.71, 35.03 20.72 C34.86 21.72, 34.59 22.73, 34.24 23.69 C33.89 24.65, 33.45 25.59, 32.94 26.48 C32.43 27.36, 31.83 28.21, 31.17 29 C30.52 29.78, 29.78 30.52, 29 31.17 C28.21 31.83, 27.36 32.43, 26.48 32.94 C25.59 33.45, 24.65 33.89, 23.69 34.24 C22.73 34.59, 21.72 34.86, 20.72 35.03 C19.71 35.21, 18.67 35.3, 17.65 35.3 C16.63 35.3, 15.59 35.21, 14.59 35.03 C13.58 34.86, 12.57 34.59, 11.61 34.24 C10.65 33.89, 9.71 33.45, 8.83 32.94 C7.94 32.43, 7.09 31.83, 6.31 31.17 C5.52 30.52, 4.79 29.78, 4.13 29 C3.47 28.21, 2.88 27.36, 2.36 26.48 C1.85 25.59, 1.41 24.65, 1.06 23.69 C0.72 22.73, 0.45 21.72, 0.27 20.72 C0.09 19.71, 0 18.67, 0 17.65 C0 16.63, 0.09 15.59, 0.27 14.59 C0.45 13.58, 0.72 12.57, 1.06 11.61 C1.41 10.65, 1.85 9.71, 2.36 8.83 C2.88 7.94, 3.47 7.09, 4.13 6.31 C4.79 5.52, 5.52 4.79, 6.31 4.13 C7.09 3.47, 7.94 2.88, 8.83 2.36 C9.71 1.85, 10.65 1.41, 11.61 1.06 C12.57 0.72, 13.58 0.45, 14.59 0.27 C15.59 0.09, 16.63 0, 17.65 0 C18.67 0, 19.71 0.09, 20.72 0.27 C21.72 0.45, 22.73 0.72, 23.69 1.06 C24.65 1.41, 25.59 1.85, 26.48 2.36 C27.36 2.88, 28.21 3.47, 29 4.13 C29.78 4.79, 30.52 5.52, 31.17 6.31 C31.83 7.09, 32.43 7.94, 32.94 8.83 C33.45 9.71, 33.89 10.65, 34.24 11.61 C34.59 12.57, 34.86 13.58, 35.03 14.59 C35.21 15.59, 35.26 17.14, 35.3 17.65 C35.35 18.16, 35.35 17.14, 35.3 17.65" stroke="none" stroke-width="0" fill="#b2f2bb"></path><path d="M35.3 17.65 C35.3 18.67, 35.21 19.71, 35.03 20.72 C34.86 21.72, 34.59 22.73, 34.24 23.69 C33.89 24.65, 33.45 25.59, 32.94 26.48 C32.43 27.36, 31.83 28.21, 31.17 29 C30.52 29.78, 29.78 30.52, 29 31.17 C28.21 31.83, 27.36 32.43, 26.48 32.94 C25.59 33.45, 24.65 33.89, 23.69 34.24 C22.73 34.59, 21.72 34.86, 20.72 35.03 C19.71 35.21, 18.67 35.3, 17.65 35.3 C16.63 35.3, 15.59 35.21, 14.59 35.03 C13.58 34.86, 12.57 34.59, 11.61 34.24 C10.65 33.89, 9.71 33.45, 8.83 32.94 C7.94 32.43, 7.09 31.83, 6.31 31.17 C5.52 30.52, 4.79 29.78, 4.13 29 C3.47 28.21, 2.88 27.36, 2.36 26.48 C1.85 25.59, 1.41 24.65, 1.06 23.69 C0.72 22.73, 0.45 21.72, 0.27 20.72 C0.09 19.71, 0 18.67, 0 17.65 C0 16.63, 0.09 15.59, 0.27 14.59 C0.45 13.58, 0.72 12.57, 1.06 11.61 C1.41 10.65, 1.85 9.71, 2.36 8.83 C2.88 7.94, 3.47 7.09, 4.13 6.31 C4.79 5.52, 5.52 4.79, 6.31 4.13 C7.09 3.47, 7.94 2.88, 8.83 2.36 C9.71 1.85, 10.65 1.41, 11.61 1.06 C12.57 0.72, 13.58 0.45, 14.59 0.27 C15.59 0.09, 16.63 0, 17.65 0 C18.67 0, 19.71 0.09, 20.72 0.27 C21.72 0.45, 22.73 0.72, 23.69 1.06 C24.65 1.41, 25.59 1.85, 26.48 2.36 C27.36 2.88, 28.21 3.47, 29 4.13 C29.78 4.79, 30.52 5.52, 31.17 6.31 C31.83 7.09, 32.43 7.94, 32.94 8.83 C33.45 9.71, 33.89 10.65, 34.24 11.61 C34.59 12.57, 34.86 13.58, 35.03 14.59 C35.21 15.59, 35.26 17.14, 35.3 17.65 C35.35 18.16, 35.35 17.14, 35.3 17.65" stroke="#f08c00" stroke-width="1" fill="none"></path></g><g stroke-linecap="round" transform="translate(605.3437194824219 148.182225545248) rotate(0 17.651031494140625 17.651031494140625)"><path d="M35.3 17.65 C35.3 18.67, 35.21 19.71, 35.03 20.72 C34.86 21.72, 34.59 22.73, 34.24 23.69 C33.89 24.65, 33.45 25.59, 32.94 26.48 C32.43 27.36, 31.83 28.21, 31.17 29 C30.52 29.78, 29.78 30.52, 29 31.17 C28.21 31.83, 27.36 32.43, 26.48 32.94 C25.59 33.45, 24.65 33.89, 23.69 34.24 C22.73 34.59, 21.72 34.86, 20.72 35.03 C19.71 35.21, 18.67 35.3, 17.65 35.3 C16.63 35.3, 15.59 35.21, 14.59 35.03 C13.58 34.86, 12.57 34.59, 11.61 34.24 C10.65 33.89, 9.71 33.45, 8.83 32.94 C7.94 32.43, 7.09 31.83, 6.31 31.17 C5.52 30.52, 4.79 29.78, 4.13 29 C3.47 28.21, 2.88 27.36, 2.36 26.48 C1.85 25.59, 1.41 24.65, 1.06 23.69 C0.72 22.73, 0.45 21.72, 0.27 20.72 C0.09 19.71, 0 18.67, 0 17.65 C0 16.63, 0.09 15.59, 0.27 14.59 C0.45 13.58, 0.72 12.57, 1.06 11.61 C1.41 10.65, 1.85 9.71, 2.36 8.83 C2.88 7.94, 3.47 7.09, 4.13 6.31 C4.79 5.52, 5.52 4.79, 6.31 4.13 C7.09 3.47, 7.94 2.88, 8.83 2.36 C9.71 1.85, 10.65 1.41, 11.61 1.06 C12.57 0.72, 13.58 0.45, 14.59 0.27 C15.59 0.09, 16.63 0, 17.65 0 C18.67 0, 19.71 0.09, 20.72 0.27 C21.72 0.45, 22.73 0.72, 23.69 1.06 C24.65 1.41, 25.59 1.85, 26.48 2.36 C27.36 2.88, 28.21 3.47, 29 4.13 C29.78 4.79, 30.52 5.52, 31.17 6.31 C31.83 7.09, 32.43 7.94, 32.94 8.83 C33.45 9.71, 33.89 10.65, 34.24 11.61 C34.59 12.57, 34.86 13.58, 35.03 14.59 C35.21 15.59, 35.26 17.14, 35.3 17.65 C35.35 18.16, 35.35 17.14, 35.3 17.65" stroke="none" stroke-width="0" fill="#ffc9c9"></path><path d="M35.3 17.65 C35.3 18.67, 35.21 19.71, 35.03 20.72 C34.86 21.72, 34.59 22.73, 34.24 23.69 C33.89 24.65, 33.45 25.59, 32.94 26.48 C32.43 27.36, 31.83 28.21, 31.17 29 C30.52 29.78, 29.78 30.52, 29 31.17 C28.21 31.83, 27.36 32.43, 26.48 32.94 C25.59 33.45, 24.65 33.89, 23.69 34.24 C22.73 34.59, 21.72 34.86, 20.72 35.03 C19.71 35.21, 18.67 35.3, 17.65 35.3 C16.63 35.3, 15.59 35.21, 14.59 35.03 C13.58 34.86, 12.57 34.59, 11.61 34.24 C10.65 33.89, 9.71 33.45, 8.83 32.94 C7.94 32.43, 7.09 31.83, 6.31 31.17 C5.52 30.52, 4.79 29.78, 4.13 29 C3.47 28.21, 2.88 27.36, 2.36 26.48 C1.85 25.59, 1.41 24.65, 1.06 23.69 C0.72 22.73, 0.45 21.72, 0.27 20.72 C0.09 19.71, 0 18.67, 0 17.65 C0 16.63, 0.09 15.59, 0.27 14.59 C0.45 13.58, 0.72 12.57, 1.06 11.61 C1.41 10.65, 1.85 9.71, 2.36 8.83 C2.88 7.94, 3.47 7.09, 4.13 6.31 C4.79 5.52, 5.52 4.79, 6.31 4.13 C7.09 3.47, 7.94 2.88, 8.83 2.36 C9.71 1.85, 10.65 1.41, 11.61 1.06 C12.57 0.72, 13.58 0.45, 14.59 0.27 C15.59 0.09, 16.63 0, 17.65 0 C18.67 0, 19.71 0.09, 20.72 0.27 C21.72 0.45, 22.73 0.72, 23.69 1.06 C24.65 1.41, 25.59 1.85, 26.48 2.36 C27.36 2.88, 28.21 3.47, 29 4.13 C29.78 4.79, 30.52 5.52, 31.17 6.31 C31.83 7.09, 32.43 7.94, 32.94 8.83 C33.45 9.71, 33.89 10.65, 34.24 11.61 C34.59 12.57, 34.86 13.58, 35.03 14.59 C35.21 15.59, 35.26 17.14, 35.3 17.65 C35.35 18.16, 35.35 17.14, 35.3 17.65" stroke="#e8590c" stroke-width="1" fill="none"></path></g><g stroke-linecap="round" transform="translate(704.6458435058594 148.2655995686855) rotate(0 17.651031494140625 17.651031494140625)"><path d="M35.3 17.65 C35.3 18.67, 35.21 19.71, 35.03 20.72 C34.86 21.72, 34.59 22.73, 34.24 23.69 C33.89 24.65, 33.45 25.59, 32.94 26.48 C32.43 27.36, 31.83 28.21, 31.17 29 C30.52 29.78, 29.78 30.52, 29 31.17 C28.21 31.83, 27.36 32.43, 26.48 32.94 C25.59 33.45, 24.65 33.89, 23.69 34.24 C22.73 34.59, 21.72 34.86, 20.72 35.03 C19.71 35.21, 18.67 35.3, 17.65 35.3 C16.63 35.3, 15.59 35.21, 14.59 35.03 C13.58 34.86, 12.57 34.59, 11.61 34.24 C10.65 33.89, 9.71 33.45, 8.83 32.94 C7.94 32.43, 7.09 31.83, 6.31 31.17 C5.52 30.52, 4.79 29.78, 4.13 29 C3.47 28.21, 2.88 27.36, 2.36 26.48 C1.85 25.59, 1.41 24.65, 1.06 23.69 C0.72 22.73, 0.45 21.72, 0.27 20.72 C0.09 19.71, 0 18.67, 0 17.65 C0 16.63, 0.09 15.59, 0.27 14.59 C0.45 13.58, 0.72 12.57, 1.06 11.61 C1.41 10.65, 1.85 9.71, 2.36 8.83 C2.88 7.94, 3.47 7.09, 4.13 6.31 C4.79 5.52, 5.52 4.79, 6.31 4.13 C7.09 3.47, 7.94 2.88, 8.83 2.36 C9.71 1.85, 10.65 1.41, 11.61 1.06 C12.57 0.72, 13.58 0.45, 14.59 0.27 C15.59 0.09, 16.63 0, 17.65 0 C18.67 0, 19.71 0.09, 20.72 0.27 C21.72 0.45, 22.73 0.72, 23.69 1.06 C24.65 1.41, 25.59 1.85, 26.48 2.36 C27.36 2.88, 28.21 3.47, 29 4.13 C29.78 4.79, 30.52 5.52, 31.17 6.31 C31.83 7.09, 32.43 7.94, 32.94 8.83 C33.45 9.71, 33.89 10.65, 34.24 11.61 C34.59 12.57, 34.86 13.58, 35.03 14.59 C35.21 15.59, 35.26 17.14, 35.3 17.65 C35.35 18.16, 35.35 17.14, 35.3 17.65" stroke="none" stroke-width="0" fill="#b2f2bb"></path><path d="M35.3 17.65 C35.3 18.67, 35.21 19.71, 35.03 20.72 C34.86 21.72, 34.59 22.73, 34.24 23.69 C33.89 24.65, 33.45 25.59, 32.94 26.48 C32.43 27.36, 31.83 28.21, 31.17 29 C30.52 29.78, 29.78 30.52, 29 31.17 C28.21 31.83, 27.36 32.43, 26.48 32.94 C25.59 33.45, 24.65 33.89, 23.69 34.24 C22.73 34.59, 21.72 34.86, 20.72 35.03 C19.71 35.21, 18.67 35.3, 17.65 35.3 C16.63 35.3, 15.59 35.21, 14.59 35.03 C13.58 34.86, 12.57 34.59, 11.61 34.24 C10.65 33.89, 9.71 33.45, 8.83 32.94 C7.94 32.43, 7.09 31.83, 6.31 31.17 C5.52 30.52, 4.79 29.78, 4.13 29 C3.47 28.21, 2.88 27.36, 2.36 26.48 C1.85 25.59, 1.41 24.65, 1.06 23.69 C0.72 22.73, 0.45 21.72, 0.27 20.72 C0.09 19.71, 0 18.67, 0 17.65 C0 16.63, 0.09 15.59, 0.27 14.59 C0.45 13.58, 0.72 12.57, 1.06 11.61 C1.41 10.65, 1.85 9.71, 2.36 8.83 C2.88 7.94, 3.47 7.09, 4.13 6.31 C4.79 5.52, 5.52 4.79, 6.31 4.13 C7.09 3.47, 7.94 2.88, 8.83 2.36 C9.71 1.85, 10.65 1.41, 11.61 1.06 C12.57 0.72, 13.58 0.45, 14.59 0.27 C15.59 0.09, 16.63 0, 17.65 0 C18.67 0, 19.71 0.09, 20.72 0.27 C21.72 0.45, 22.73 0.72, 23.69 1.06 C24.65 1.41, 25.59 1.85, 26.48 2.36 C27.36 2.88, 28.21 3.47, 29 4.13 C29.78 4.79, 30.52 5.52, 31.17 6.31 C31.83 7.09, 32.43 7.94, 32.94 8.83 C33.45 9.71, 33.89 10.65, 34.24 11.61 C34.59 12.57, 34.86 13.58, 35.03 14.59 C35.21 15.59, 35.26 17.14, 35.3 17.65 C35.35 18.16, 35.35 17.14, 35.3 17.65" stroke="#e8590c" stroke-width="1" fill="none"></path></g><g stroke-linecap="round" transform="translate(801.7292175292969 149.40100606282613) rotate(0 17.651031494140625 17.651031494140625)"><path d="M35.3 17.65 C35.3 18.67, 35.21 19.71, 35.03 20.72 C34.86 21.72, 34.59 22.73, 34.24 23.69 C33.89 24.65, 33.45 25.59, 32.94 26.48 C32.43 27.36, 31.83 28.21, 31.17 29 C30.52 29.78, 29.78 30.52, 29 31.17 C28.21 31.83, 27.36 32.43, 26.48 32.94 C25.59 33.45, 24.65 33.89, 23.69 34.24 C22.73 34.59, 21.72 34.86, 20.72 35.03 C19.71 35.21, 18.67 35.3, 17.65 35.3 C16.63 35.3, 15.59 35.21, 14.59 35.03 C13.58 34.86, 12.57 34.59, 11.61 34.24 C10.65 33.89, 9.71 33.45, 8.83 32.94 C7.94 32.43, 7.09 31.83, 6.31 31.17 C5.52 30.52, 4.79 29.78, 4.13 29 C3.47 28.21, 2.88 27.36, 2.36 26.48 C1.85 25.59, 1.41 24.65, 1.06 23.69 C0.72 22.73, 0.45 21.72, 0.27 20.72 C0.09 19.71, 0 18.67, 0 17.65 C0 16.63, 0.09 15.59, 0.27 14.59 C0.45 13.58, 0.72 12.57, 1.06 11.61 C1.41 10.65, 1.85 9.71, 2.36 8.83 C2.88 7.94, 3.47 7.09, 4.13 6.31 C4.79 5.52, 5.52 4.79, 6.31 4.13 C7.09 3.47, 7.94 2.88, 8.83 2.36 C9.71 1.85, 10.65 1.41, 11.61 1.06 C12.57 0.72, 13.58 0.45, 14.59 0.27 C15.59 0.09, 16.63 0, 17.65 0 C18.67 0, 19.71 0.09, 20.72 0.27 C21.72 0.45, 22.73 0.72, 23.69 1.06 C24.65 1.41, 25.59 1.85, 26.48 2.36 C27.36 2.88, 28.21 3.47, 29 4.13 C29.78 4.79, 30.52 5.52, 31.17 6.31 C31.83 7.09, 32.43 7.94, 32.94 8.83 C33.45 9.71, 33.89 10.65, 34.24 11.61 C34.59 12.57, 34.86 13.58, 35.03 14.59 C35.21 15.59, 35.26 17.14, 35.3 17.65 C35.35 18.16, 35.35 17.14, 35.3 17.65" stroke="none" stroke-width="0" fill="#ffec99"></path><path d="M35.3 17.65 C35.3 18.67, 35.21 19.71, 35.03 20.72 C34.86 21.72, 34.59 22.73, 34.24 23.69 C33.89 24.65, 33.45 25.59, 32.94 26.48 C32.43 27.36, 31.83 28.21, 31.17 29 C30.52 29.78, 29.78 30.52, 29 31.17 C28.21 31.83, 27.36 32.43, 26.48 32.94 C25.59 33.45, 24.65 33.89, 23.69 34.24 C22.73 34.59, 21.72 34.86, 20.72 35.03 C19.71 35.21, 18.67 35.3, 17.65 35.3 C16.63 35.3, 15.59 35.21, 14.59 35.03 C13.58 34.86, 12.57 34.59, 11.61 34.24 C10.65 33.89, 9.71 33.45, 8.83 32.94 C7.94 32.43, 7.09 31.83, 6.31 31.17 C5.52 30.52, 4.79 29.78, 4.13 29 C3.47 28.21, 2.88 27.36, 2.36 26.48 C1.85 25.59, 1.41 24.65, 1.06 23.69 C0.72 22.73, 0.45 21.72, 0.27 20.72 C0.09 19.71, 0 18.67, 0 17.65 C0 16.63, 0.09 15.59, 0.27 14.59 C0.45 13.58, 0.72 12.57, 1.06 11.61 C1.41 10.65, 1.85 9.71, 2.36 8.83 C2.88 7.94, 3.47 7.09, 4.13 6.31 C4.79 5.52, 5.52 4.79, 6.31 4.13 C7.09 3.47, 7.94 2.88, 8.83 2.36 C9.71 1.85, 10.65 1.41, 11.61 1.06 C12.57 0.72, 13.58 0.45, 14.59 0.27 C15.59 0.09, 16.63 0, 17.65 0 C18.67 0, 19.71 0.09, 20.72 0.27 C21.72 0.45, 22.73 0.72, 23.69 1.06 C24.65 1.41, 25.59 1.85, 26.48 2.36 C27.36 2.88, 28.21 3.47, 29 4.13 C29.78 4.79, 30.52 5.52, 31.17 6.31 C31.83 7.09, 32.43 7.94, 32.94 8.83 C33.45 9.71, 33.89 10.65, 34.24 11.61 C34.59 12.57, 34.86 13.58, 35.03 14.59 C35.21 15.59, 35.26 17.14, 35.3 17.65 C35.35 18.16, 35.35 17.14, 35.3 17.65" stroke="#f08c00" stroke-width="1" fill="none"></path></g><g stroke-linecap="round" transform="translate(893.9688415527344 147.9218495686855) rotate(0 17.651031494140625 17.651031494140625)"><path d="M35.3 17.65 C35.3 18.67, 35.21 19.71, 35.03 20.72 C34.86 21.72, 34.59 22.73, 34.24 23.69 C33.89 24.65, 33.45 25.59, 32.94 26.48 C32.43 27.36, 31.83 28.21, 31.17 29 C30.52 29.78, 29.78 30.52, 29 31.17 C28.21 31.83, 27.36 32.43, 26.48 32.94 C25.59 33.45, 24.65 33.89, 23.69 34.24 C22.73 34.59, 21.72 34.86, 20.72 35.03 C19.71 35.21, 18.67 35.3, 17.65 35.3 C16.63 35.3, 15.59 35.21, 14.59 35.03 C13.58 34.86, 12.57 34.59, 11.61 34.24 C10.65 33.89, 9.71 33.45, 8.83 32.94 C7.94 32.43, 7.09 31.83, 6.31 31.17 C5.52 30.52, 4.79 29.78, 4.13 29 C3.47 28.21, 2.88 27.36, 2.36 26.48 C1.85 25.59, 1.41 24.65, 1.06 23.69 C0.72 22.73, 0.45 21.72, 0.27 20.72 C0.09 19.71, 0 18.67, 0 17.65 C0 16.63, 0.09 15.59, 0.27 14.59 C0.45 13.58, 0.72 12.57, 1.06 11.61 C1.41 10.65, 1.85 9.71, 2.36 8.83 C2.88 7.94, 3.47 7.09, 4.13 6.31 C4.79 5.52, 5.52 4.79, 6.31 4.13 C7.09 3.47, 7.94 2.88, 8.83 2.36 C9.71 1.85, 10.65 1.41, 11.61 1.06 C12.57 0.72, 13.58 0.45, 14.59 0.27 C15.59 0.09, 16.63 0, 17.65 0 C18.67 0, 19.71 0.09, 20.72 0.27 C21.72 0.45, 22.73 0.72, 23.69 1.06 C24.65 1.41, 25.59 1.85, 26.48 2.36 C27.36 2.88, 28.21 3.47, 29 4.13 C29.78 4.79, 30.52 5.52, 31.17 6.31 C31.83 7.09, 32.43 7.94, 32.94 8.83 C33.45 9.71, 33.89 10.65, 34.24 11.61 C34.59 12.57, 34.86 13.58, 35.03 14.59 C35.21 15.59, 35.26 17.14, 35.3 17.65 C35.35 18.16, 35.35 17.14, 35.3 17.65" stroke="none" stroke-width="0" fill="#eebefa"></path><path d="M35.3 17.65 C35.3 18.67, 35.21 19.71, 35.03 20.72 C34.86 21.72, 34.59 22.73, 34.24 23.69 C33.89 24.65, 33.45 25.59, 32.94 26.48 C32.43 27.36, 31.83 28.21, 31.17 29 C30.52 29.78, 29.78 30.52, 29 31.17 C28.21 31.83, 27.36 32.43, 26.48 32.94 C25.59 33.45, 24.65 33.89, 23.69 34.24 C22.73 34.59, 21.72 34.86, 20.72 35.03 C19.71 35.21, 18.67 35.3, 17.65 35.3 C16.63 35.3, 15.59 35.21, 14.59 35.03 C13.58 34.86, 12.57 34.59, 11.61 34.24 C10.65 33.89, 9.71 33.45, 8.83 32.94 C7.94 32.43, 7.09 31.83, 6.31 31.17 C5.52 30.52, 4.79 29.78, 4.13 29 C3.47 28.21, 2.88 27.36, 2.36 26.48 C1.85 25.59, 1.41 24.65, 1.06 23.69 C0.72 22.73, 0.45 21.72, 0.27 20.72 C0.09 19.71, 0 18.67, 0 17.65 C0 16.63, 0.09 15.59, 0.27 14.59 C0.45 13.58, 0.72 12.57, 1.06 11.61 C1.41 10.65, 1.85 9.71, 2.36 8.83 C2.88 7.94, 3.47 7.09, 4.13 6.31 C4.79 5.52, 5.52 4.79, 6.31 4.13 C7.09 3.47, 7.94 2.88, 8.83 2.36 C9.71 1.85, 10.65 1.41, 11.61 1.06 C12.57 0.72, 13.58 0.45, 14.59 0.27 C15.59 0.09, 16.63 0, 17.65 0 C18.67 0, 19.71 0.09, 20.72 0.27 C21.72 0.45, 22.73 0.72, 23.69 1.06 C24.65 1.41, 25.59 1.85, 26.48 2.36 C27.36 2.88, 28.21 3.47, 29 4.13 C29.78 4.79, 30.52 5.52, 31.17 6.31 C31.83 7.09, 32.43 7.94, 32.94 8.83 C33.45 9.71, 33.89 10.65, 34.24 11.61 C34.59 12.57, 34.86 13.58, 35.03 14.59 C35.21 15.59, 35.26 17.14, 35.3 17.65 C35.35 18.16, 35.35 17.14, 35.3 17.65" stroke="#2f9e44" stroke-width="1" fill="none"></path></g><g stroke-linecap="round" transform="translate(492.5885009765625 213.22916158040425) rotate(0 222.88018798828125 71.265625)"><path d="M32 0 C141.12 0, 250.24 0, 413.76 0 C435.09 0, 445.76 10.67, 445.76 32 C445.76 54.21, 445.76 76.42, 445.76 110.53 C445.76 131.86, 435.09 142.53, 413.76 142.53 C332.3 142.53, 250.83 142.53, 32 142.53 C10.67 142.53, 0 131.86, 0 110.53 C0 80.25, 0 49.97, 0 32 C0 10.67, 10.67 0, 32 0" stroke="none" stroke-width="0" fill="#1e1e1e"></path><path d="M32 0 C134.94 0, 237.89 0, 413.76 0 M32 0 C172.76 0, 313.52 0, 413.76 0 M413.76 0 C435.09 0, 445.76 10.67, 445.76 32 M413.76 0 C435.09 0, 445.76 10.67, 445.76 32 M445.76 32 C445.76 56.39, 445.76 80.77, 445.76 110.53 M445.76 32 C445.76 54.48, 445.76 76.97, 445.76 110.53 M445.76 110.53 C445.76 131.86, 435.09 142.53, 413.76 142.53 M445.76 110.53 C445.76 131.86, 435.09 142.53, 413.76 142.53 M413.76 142.53 C304.92 142.53, 196.07 142.53, 32 142.53 M413.76 142.53 C332.92 142.53, 252.08 142.53, 32 142.53 M32 142.53 C10.67 142.53, 0 131.86, 0 110.53 M32 142.53 C10.67 142.53, 0 131.86, 0 110.53 M0 110.53 C0 93.53, 0 76.52, 0 32 M0 110.53 C0 90.81, 0 71.08, 0 32 M0 32 C0 10.67, 10.67 0, 32 0 M0 32 C0 10.67, 10.67 0, 32 0" stroke="#2f9e44" stroke-width="1" fill="none"></path></g><g stroke-linecap="round" transform="translate(511.953125 226.12503560384175) rotate(0 59.2396240234375 59.34508991281791)"><path d="M29.62 0 C46.4 0, 63.18 0, 88.86 0 C108.61 0, 118.48 9.87, 118.48 29.62 C118.48 42.54, 118.48 55.46, 118.48 89.07 C118.48 108.82, 108.61 118.69, 88.86 118.69 C72.72 118.69, 56.57 118.69, 29.62 118.69 C9.87 118.69, 0 108.82, 0 89.07 C0 73.33, 0 57.58, 0 29.62 C0 9.87, 9.87 0, 29.62 0" stroke="none" stroke-width="0" fill="#e9ecef"></path><path d="M29.62 0 C46.4 0, 63.18 0, 88.86 0 M29.62 0 C41.64 0, 53.66 0, 88.86 0 M88.86 0 C108.61 0, 118.48 9.87, 118.48 29.62 M88.86 0 C108.61 0, 118.48 9.87, 118.48 29.62 M118.48 29.62 C118.48 44.41, 118.48 59.2, 118.48 89.07 M118.48 29.62 C118.48 51.61, 118.48 73.6, 118.48 89.07 M118.48 89.07 C118.48 108.82, 108.61 118.69, 88.86 118.69 M118.48 89.07 C118.48 108.82, 108.61 118.69, 88.86 118.69 M88.86 118.69 C65.22 118.69, 41.57 118.69, 29.62 118.69 M88.86 118.69 C68.6 118.69, 48.33 118.69, 29.62 118.69 M29.62 118.69 C9.87 118.69, 0 108.82, 0 89.07 M29.62 118.69 C9.87 118.69, 0 108.82, 0 89.07 M0 89.07 C0 67.11, 0 45.16, 0 29.62 M0 89.07 C0 74.17, 0 59.28, 0 29.62 M0 29.62 C0 9.87, 9.87 0, 29.62 0 M0 29.62 C0 9.87, 9.87 0, 29.62 0" stroke="#2f9e44" stroke-width="1" fill="none"></path></g><g stroke-linecap="round" transform="translate(658.4947509765625 225.82157166758589) rotate(0 59.2396240234375 59.34508991281791)"><path d="M29.62 0 C45.53 0, 61.44 0, 88.86 0 C108.61 0, 118.48 9.87, 118.48 29.62 C118.48 44.43, 118.48 59.25, 118.48 89.07 C118.48 108.82, 108.61 118.69, 88.86 118.69 C73.41 118.69, 57.96 118.69, 29.62 118.69 C9.87 118.69, 0 108.82, 0 89.07 C0 73.81, 0 58.56, 0 29.62 C0 9.87, 9.87 0, 29.62 0" stroke="none" stroke-width="0" fill="#e9ecef"></path><path d="M29.62 0 C50.43 0, 71.23 0, 88.86 0 M29.62 0 C43.93 0, 58.23 0, 88.86 0 M88.86 0 C108.61 0, 118.48 9.87, 118.48 29.62 M88.86 0 C108.61 0, 118.48 9.87, 118.48 29.62 M118.48 29.62 C118.48 42.5, 118.48 55.37, 118.48 89.07 M118.48 29.62 C118.48 45.34, 118.48 61.05, 118.48 89.07 M118.48 89.07 C118.48 108.82, 108.61 118.69, 88.86 118.69 M118.48 89.07 C118.48 108.82, 108.61 118.69, 88.86 118.69 M88.86 118.69 C71.43 118.69, 54 118.69, 29.62 118.69 M88.86 118.69 C75.73 118.69, 62.61 118.69, 29.62 118.69 M29.62 118.69 C9.87 118.69, 0 108.82, 0 89.07 M29.62 118.69 C9.87 118.69, 0 108.82, 0 89.07 M0 89.07 C0 76.74, 0 64.41, 0 29.62 M0 89.07 C0 67.32, 0 45.56, 0 29.62 M0 29.62 C0 9.87, 9.87 0, 29.62 0 M0 29.62 C0 9.87, 9.87 0, 29.62 0" stroke="#2f9e44" stroke-width="1" fill="none"></path></g><g stroke-linecap="round" transform="translate(797.6510009765625 224.80069764414839) rotate(0 59.2396240234375 59.34508991281791)"><path d="M29.62 0 C50.33 0, 71.04 0, 88.86 0 C108.61 0, 118.48 9.87, 118.48 29.62 C118.48 43.25, 118.48 56.88, 118.48 89.07 C118.48 108.82, 108.61 118.69, 88.86 118.69 C73.03 118.69, 57.19 118.69, 29.62 118.69 C9.87 118.69, 0 108.82, 0 89.07 C0 73.03, 0 56.98, 0 29.62 C0 9.87, 9.87 0, 29.62 0" stroke="none" stroke-width="0" fill="#e9ecef"></path><path d="M29.62 0 C44.52 0, 59.42 0, 88.86 0 M29.62 0 C43.47 0, 57.31 0, 88.86 0 M88.86 0 C108.61 0, 118.48 9.87, 118.48 29.62 M88.86 0 C108.61 0, 118.48 9.87, 118.48 29.62 M118.48 29.62 C118.48 42.77, 118.48 55.92, 118.48 89.07 M118.48 29.62 C118.48 49.55, 118.48 69.47, 118.48 89.07 M118.48 89.07 C118.48 108.82, 108.61 118.69, 88.86 118.69 M118.48 89.07 C118.48 108.82, 108.61 118.69, 88.86 118.69 M88.86 118.69 C71.77 118.69, 54.67 118.69, 29.62 118.69 M88.86 118.69 C68.64 118.69, 48.43 118.69, 29.62 118.69 M29.62 118.69 C9.87 118.69, 0 108.82, 0 89.07 M29.62 118.69 C9.87 118.69, 0 108.82, 0 89.07 M0 89.07 C0 67.12, 0 45.16, 0 29.62 M0 89.07 C0 72.17, 0 55.27, 0 29.62 M0 29.62 C0 9.87, 9.87 0, 29.62 0 M0 29.62 C0 9.87, 9.87 0, 29.62 0" stroke="#2f9e44" stroke-width="1" fill="none"></path></g><g stroke-linecap="round" transform="translate(493.5679931640625 382.24991353352925) rotate(0 223.70831298828125 204.5416259765625)"><path d="M32 0 C117.71 0, 203.43 0, 415.42 0 C436.75 0, 447.42 10.67, 447.42 32 C447.42 141.22, 447.42 250.43, 447.42 377.08 C447.42 398.42, 436.75 409.08, 415.42 409.08 C275.51 409.08, 135.6 409.08, 32 409.08 C10.67 409.08, 0 398.42, 0 377.08 C0 279.43, 0 181.77, 0 32 C0 10.67, 10.67 0, 32 0" stroke="none" stroke-width="0" fill="#e9ecef"></path><path d="M32 0 C156.42 0, 280.84 0, 415.42 0 M32 0 C125.41 0, 218.83 0, 415.42 0 M415.42 0 C436.75 0, 447.42 10.67, 447.42 32 M415.42 0 C436.75 0, 447.42 10.67, 447.42 32 M447.42 32 C447.42 161.97, 447.42 291.94, 447.42 377.08 M447.42 32 C447.42 135.47, 447.42 238.95, 447.42 377.08 M447.42 377.08 C447.42 398.42, 436.75 409.08, 415.42 409.08 M447.42 377.08 C447.42 398.42, 436.75 409.08, 415.42 409.08 M415.42 409.08 C316.68 409.08, 217.95 409.08, 32 409.08 M415.42 409.08 C305.47 409.08, 195.52 409.08, 32 409.08 M32 409.08 C10.67 409.08, 0 398.42, 0 377.08 M32 409.08 C10.67 409.08, 0 398.42, 0 377.08 M0 377.08 C0 305.03, 0 232.97, 0 32 M0 377.08 C0 265.78, 0 154.48, 0 32 M0 32 C0 10.67, 10.67 0, 32 0 M0 32 C0 10.67, 10.67 0, 32 0" stroke="#2f9e44" stroke-width="1" fill="none"></path></g><g transform="translate(604.7512969970703 414.20828755696675) rotate(0 151.0039520263672 17.5)"><text x="151.0039520263672" y="0" font-family="Virgil, Segoe UI Emoji" font-size="28px" fill="#1e1e1e" text-anchor="middle" style="white-space: pre;" direction="ltr" dominant-baseline="text-before-edge">7/15 Tasks Completed</text></g><g stroke-linecap="round" transform="translate(522.0885009765625 405.07291158040425) rotate(0 26.72393798828125 26.72393798828125)"><path d="M53.45 26.72 C53.45 28.27, 53.31 29.84, 53.04 31.36 C52.77 32.89, 52.37 34.41, 51.84 35.86 C51.31 37.32, 50.64 38.75, 49.87 40.09 C49.09 41.43, 48.19 42.72, 47.2 43.9 C46.2 45.09, 45.09 46.2, 43.9 47.2 C42.72 48.19, 41.43 49.09, 40.09 49.87 C38.75 50.64, 37.32 51.31, 35.86 51.84 C34.41 52.37, 32.89 52.77, 31.36 53.04 C29.84 53.31, 28.27 53.45, 26.72 53.45 C25.18 53.45, 23.61 53.31, 22.08 53.04 C20.56 52.77, 19.04 52.37, 17.58 51.84 C16.13 51.31, 14.7 50.64, 13.36 49.87 C12.02 49.09, 10.73 48.19, 9.55 47.2 C8.36 46.2, 7.25 45.09, 6.25 43.9 C5.26 42.72, 4.35 41.43, 3.58 40.09 C2.81 38.75, 2.14 37.32, 1.61 35.86 C1.08 34.41, 0.67 32.89, 0.41 31.36 C0.14 29.84, 0 28.27, 0 26.72 C0 25.18, 0.14 23.61, 0.41 22.08 C0.67 20.56, 1.08 19.04, 1.61 17.58 C2.14 16.13, 2.81 14.7, 3.58 13.36 C4.35 12.02, 5.26 10.73, 6.25 9.55 C7.25 8.36, 8.36 7.25, 9.55 6.25 C10.73 5.26, 12.02 4.35, 13.36 3.58 C14.7 2.81, 16.13 2.14, 17.58 1.61 C19.04 1.08, 20.56 0.67, 22.08 0.41 C23.61 0.14, 25.18 0, 26.72 0 C28.27 0, 29.84 0.14, 31.36 0.41 C32.89 0.67, 34.41 1.08, 35.86 1.61 C37.32 2.14, 38.75 2.81, 40.09 3.58 C41.43 4.35, 42.72 5.26, 43.9 6.25 C45.09 7.25, 46.2 8.36, 47.2 9.55 C48.19 10.73, 49.09 12.02, 49.87 13.36 C50.64 14.7, 51.31 16.13, 51.84 17.58 C52.37 19.04, 52.77 20.56, 53.04 22.08 C53.31 23.61, 53.38 25.95, 53.45 26.72 C53.52 27.5, 53.52 25.95, 53.45 26.72" stroke="none" stroke-width="0" fill="#ffec99"></path><path d="M53.45 26.72 C53.45 28.27, 53.31 29.84, 53.04 31.36 C52.77 32.89, 52.37 34.41, 51.84 35.86 C51.31 37.32, 50.64 38.75, 49.87 40.09 C49.09 41.43, 48.19 42.72, 47.2 43.9 C46.2 45.09, 45.09 46.2, 43.9 47.2 C42.72 48.19, 41.43 49.09, 40.09 49.87 C38.75 50.64, 37.32 51.31, 35.86 51.84 C34.41 52.37, 32.89 52.77, 31.36 53.04 C29.84 53.31, 28.27 53.45, 26.72 53.45 C25.18 53.45, 23.61 53.31, 22.08 53.04 C20.56 52.77, 19.04 52.37, 17.58 51.84 C16.13 51.31, 14.7 50.64, 13.36 49.87 C12.02 49.09, 10.73 48.19, 9.55 47.2 C8.36 46.2, 7.25 45.09, 6.25 43.9 C5.26 42.72, 4.35 41.43, 3.58 40.09 C2.81 38.75, 2.14 37.32, 1.61 35.86 C1.08 34.41, 0.67 32.89, 0.41 31.36 C0.14 29.84, 0 28.27, 0 26.72 C0 25.18, 0.14 23.61, 0.41 22.08 C0.67 20.56, 1.08 19.04, 1.61 17.58 C2.14 16.13, 2.81 14.7, 3.58 13.36 C4.35 12.02, 5.26 10.73, 6.25 9.55 C7.25 8.36, 8.36 7.25, 9.55 6.25 C10.73 5.26, 12.02 4.35, 13.36 3.58 C14.7 2.81, 16.13 2.14, 17.58 1.61 C19.04 1.08, 20.56 0.67, 22.08 0.41 C23.61 0.14, 25.18 0, 26.72 0 C28.27 0, 29.84 0.14, 31.36 0.41 C32.89 0.67, 34.41 1.08, 35.86 1.61 C37.32 2.14, 38.75 2.81, 40.09 3.58 C41.43 4.35, 42.72 5.26, 43.9 6.25 C45.09 7.25, 46.2 8.36, 47.2 9.55 C48.19 10.73, 49.09 12.02, 49.87 13.36 C50.64 14.7, 51.31 16.13, 51.84 17.58 C52.37 19.04, 52.77 20.56, 53.04 22.08 C53.31 23.61, 53.38 25.95, 53.45 26.72 C53.52 27.5, 53.52 25.95, 53.45 26.72" stroke="#1e1e1e" stroke-width="1" fill="none"></path></g><g transform="translate(686.0314483642578 493.72391255696675) rotate(0 106.2739486694336 17.5)"><text x="106.2739486694336" y="0" font-family="Virgil, Segoe UI Emoji" font-size="28px" fill="#1e1e1e" text-anchor="middle" style="white-space: pre;" direction="ltr" dominant-baseline="text-before-edge">Risk Preference</text></g><g stroke-linecap="round" transform="translate(518.1354370117188 483.8905995686855) rotate(0 26.72393798828125 26.72393798828125)"><path d="M53.45 26.72 C53.45 28.27, 53.31 29.84, 53.04 31.36 C52.77 32.89, 52.37 34.41, 51.84 35.86 C51.31 37.32, 50.64 38.75, 49.87 40.09 C49.09 41.43, 48.19 42.72, 47.2 43.9 C46.2 45.09, 45.09 46.2, 43.9 47.2 C42.72 48.19, 41.43 49.09, 40.09 49.87 C38.75 50.64, 37.32 51.31, 35.86 51.84 C34.41 52.37, 32.89 52.77, 31.36 53.04 C29.84 53.31, 28.27 53.45, 26.72 53.45 C25.18 53.45, 23.61 53.31, 22.08 53.04 C20.56 52.77, 19.04 52.37, 17.58 51.84 C16.13 51.31, 14.7 50.64, 13.36 49.87 C12.02 49.09, 10.73 48.19, 9.55 47.2 C8.36 46.2, 7.25 45.09, 6.25 43.9 C5.26 42.72, 4.35 41.43, 3.58 40.09 C2.81 38.75, 2.14 37.32, 1.61 35.86 C1.08 34.41, 0.67 32.89, 0.41 31.36 C0.14 29.84, 0 28.27, 0 26.72 C0 25.18, 0.14 23.61, 0.41 22.08 C0.67 20.56, 1.08 19.04, 1.61 17.58 C2.14 16.13, 2.81 14.7, 3.58 13.36 C4.35 12.02, 5.26 10.73, 6.25 9.55 C7.25 8.36, 8.36 7.25, 9.55 6.25 C10.73 5.26, 12.02 4.35, 13.36 3.58 C14.7 2.81, 16.13 2.14, 17.58 1.61 C19.04 1.08, 20.56 0.67, 22.08 0.41 C23.61 0.14, 25.18 0, 26.72 0 C28.27 0, 29.84 0.14, 31.36 0.41 C32.89 0.67, 34.41 1.08, 35.86 1.61 C37.32 2.14, 38.75 2.81, 40.09 3.58 C41.43 4.35, 42.72 5.26, 43.9 6.25 C45.09 7.25, 46.2 8.36, 47.2 9.55 C48.19 10.73, 49.09 12.02, 49.87 13.36 C50.64 14.7, 51.31 16.13, 51.84 17.58 C52.37 19.04, 52.77 20.56, 53.04 22.08 C53.31 23.61, 53.38 25.95, 53.45 26.72 C53.52 27.5, 53.52 25.95, 53.45 26.72" stroke="none" stroke-width="0" fill="#ffc9c9"></path><path d="M53.45 26.72 C53.45 28.27, 53.31 29.84, 53.04 31.36 C52.77 32.89, 52.37 34.41, 51.84 35.86 C51.31 37.32, 50.64 38.75, 49.87 40.09 C49.09 41.43, 48.19 42.72, 47.2 43.9 C46.2 45.09, 45.09 46.2, 43.9 47.2 C42.72 48.19, 41.43 49.09, 40.09 49.87 C38.75 50.64, 37.32 51.31, 35.86 51.84 C34.41 52.37, 32.89 52.77, 31.36 53.04 C29.84 53.31, 28.27 53.45, 26.72 53.45 C25.18 53.45, 23.61 53.31, 22.08 53.04 C20.56 52.77, 19.04 52.37, 17.58 51.84 C16.13 51.31, 14.7 50.64, 13.36 49.87 C12.02 49.09, 10.73 48.19, 9.55 47.2 C8.36 46.2, 7.25 45.09, 6.25 43.9 C5.26 42.72, 4.35 41.43, 3.58 40.09 C2.81 38.75, 2.14 37.32, 1.61 35.86 C1.08 34.41, 0.67 32.89, 0.41 31.36 C0.14 29.84, 0 28.27, 0 26.72 C0 25.18, 0.14 23.61, 0.41 22.08 C0.67 20.56, 1.08 19.04, 1.61 17.58 C2.14 16.13, 2.81 14.7, 3.58 13.36 C4.35 12.02, 5.26 10.73, 6.25 9.55 C7.25 8.36, 8.36 7.25, 9.55 6.25 C10.73 5.26, 12.02 4.35, 13.36 3.58 C14.7 2.81, 16.13 2.14, 17.58 1.61 C19.04 1.08, 20.56 0.67, 22.08 0.41 C23.61 0.14, 25.18 0, 26.72 0 C28.27 0, 29.84 0.14, 31.36 0.41 C32.89 0.67, 34.41 1.08, 35.86 1.61 C37.32 2.14, 38.75 2.81, 40.09 3.58 C41.43 4.35, 42.72 5.26, 43.9 6.25 C45.09 7.25, 46.2 8.36, 47.2 9.55 C48.19 10.73, 49.09 12.02, 49.87 13.36 C50.64 14.7, 51.31 16.13, 51.84 17.58 C52.37 19.04, 52.77 20.56, 53.04 22.08 C53.31 23.61, 53.38 25.95, 53.45 26.72 C53.52 27.5, 53.52 25.95, 53.45 26.72" stroke="#1e1e1e" stroke-width="1" fill="none"></path></g><g transform="translate(522.1397552490234 497.677098592123) rotate(0 24.177993774414062 17.5)"><text x="24.177993774414062" y="0" font-family="Virgil, Segoe UI Emoji" font-size="28px" fill="#1e1e1e" text-anchor="middle" style="white-space: pre;" direction="ltr" dominant-baseline="text-before-edge">0.8</text></g><g transform="translate(667.7298583984375 558.7500356038418) rotate(0 126.13534011840784 21.546875)"><text x="0" y="0" font-family="Virgil, Segoe UI Emoji" font-size="17.237499999999997px" fill="#1e1e1e" text-anchor="start" style="white-space: pre;" direction="ltr" dominant-baseline="text-before-edge">Your investments are </text><text x="0" y="21.546874999999996" font-family="Virgil, Segoe UI Emoji" font-size="17.237499999999997px" fill="#1e1e1e" text-anchor="start" style="white-space: pre;" direction="ltr" dominant-baseline="text-before-edge">reflective of your risk profile.</text></g><g stroke-linecap="round" transform="translate(517.6251831054688 564.4114125569668) rotate(0 26.72393798828125 26.72393798828125)"><path d="M53.45 26.72 C53.45 28.27, 53.31 29.84, 53.04 31.36 C52.77 32.89, 52.37 34.41, 51.84 35.86 C51.31 37.32, 50.64 38.75, 49.87 40.09 C49.09 41.43, 48.19 42.72, 47.2 43.9 C46.2 45.09, 45.09 46.2, 43.9 47.2 C42.72 48.19, 41.43 49.09, 40.09 49.87 C38.75 50.64, 37.32 51.31, 35.86 51.84 C34.41 52.37, 32.89 52.77, 31.36 53.04 C29.84 53.31, 28.27 53.45, 26.72 53.45 C25.18 53.45, 23.61 53.31, 22.08 53.04 C20.56 52.77, 19.04 52.37, 17.58 51.84 C16.13 51.31, 14.7 50.64, 13.36 49.87 C12.02 49.09, 10.73 48.19, 9.55 47.2 C8.36 46.2, 7.25 45.09, 6.25 43.9 C5.26 42.72, 4.35 41.43, 3.58 40.09 C2.81 38.75, 2.14 37.32, 1.61 35.86 C1.08 34.41, 0.67 32.89, 0.41 31.36 C0.14 29.84, 0 28.27, 0 26.72 C0 25.18, 0.14 23.61, 0.41 22.08 C0.67 20.56, 1.08 19.04, 1.61 17.58 C2.14 16.13, 2.81 14.7, 3.58 13.36 C4.35 12.02, 5.26 10.73, 6.25 9.55 C7.25 8.36, 8.36 7.25, 9.55 6.25 C10.73 5.26, 12.02 4.35, 13.36 3.58 C14.7 2.81, 16.13 2.14, 17.58 1.61 C19.04 1.08, 20.56 0.67, 22.08 0.41 C23.61 0.14, 25.18 0, 26.72 0 C28.27 0, 29.84 0.14, 31.36 0.41 C32.89 0.67, 34.41 1.08, 35.86 1.61 C37.32 2.14, 38.75 2.81, 40.09 3.58 C41.43 4.35, 42.72 5.26, 43.9 6.25 C45.09 7.25, 46.2 8.36, 47.2 9.55 C48.19 10.73, 49.09 12.02, 49.87 13.36 C50.64 14.7, 51.31 16.13, 51.84 17.58 C52.37 19.04, 52.77 20.56, 53.04 22.08 C53.31 23.61, 53.38 25.95, 53.45 26.72 C53.52 27.5, 53.52 25.95, 53.45 26.72" stroke="none" stroke-width="0" fill="#b2f2bb"></path><path d="M53.45 26.72 C53.45 28.27, 53.31 29.84, 53.04 31.36 C52.77 32.89, 52.37 34.41, 51.84 35.86 C51.31 37.32, 50.64 38.75, 49.87 40.09 C49.09 41.43, 48.19 42.72, 47.2 43.9 C46.2 45.09, 45.09 46.2, 43.9 47.2 C42.72 48.19, 41.43 49.09, 40.09 49.87 C38.75 50.64, 37.32 51.31, 35.86 51.84 C34.41 52.37, 32.89 52.77, 31.36 53.04 C29.84 53.31, 28.27 53.45, 26.72 53.45 C25.18 53.45, 23.61 53.31, 22.08 53.04 C20.56 52.77, 19.04 52.37, 17.58 51.84 C16.13 51.31, 14.7 50.64, 13.36 49.87 C12.02 49.09, 10.73 48.19, 9.55 47.2 C8.36 46.2, 7.25 45.09, 6.25 43.9 C5.26 42.72, 4.35 41.43, 3.58 40.09 C2.81 38.75, 2.14 37.32, 1.61 35.86 C1.08 34.41, 0.67 32.89, 0.41 31.36 C0.14 29.84, 0 28.27, 0 26.72 C0 25.18, 0.14 23.61, 0.41 22.08 C0.67 20.56, 1.08 19.04, 1.61 17.58 C2.14 16.13, 2.81 14.7, 3.58 13.36 C4.35 12.02, 5.26 10.73, 6.25 9.55 C7.25 8.36, 8.36 7.25, 9.55 6.25 C10.73 5.26, 12.02 4.35, 13.36 3.58 C14.7 2.81, 16.13 2.14, 17.58 1.61 C19.04 1.08, 20.56 0.67, 22.08 0.41 C23.61 0.14, 25.18 0, 26.72 0 C28.27 0, 29.84 0.14, 31.36 0.41 C32.89 0.67, 34.41 1.08, 35.86 1.61 C37.32 2.14, 38.75 2.81, 40.09 3.58 C41.43 4.35, 42.72 5.26, 43.9 6.25 C45.09 7.25, 46.2 8.36, 47.2 9.55 C48.19 10.73, 49.09 12.02, 49.87 13.36 C50.64 14.7, 51.31 16.13, 51.84 17.58 C52.37 19.04, 52.77 20.56, 53.04 22.08 C53.31 23.61, 53.38 25.95, 53.45 26.72 C53.52 27.5, 53.52 25.95, 53.45 26.72" stroke="#1e1e1e" stroke-width="1" fill="none"></path></g><g stroke-linecap="round" transform="translate(523.4477592468284 646.7785390218105) rotate(0 26.72393798828125 26.72393798828125)"><path d="M53.45 26.72 C53.45 28.27, 53.31 29.84, 53.04 31.36 C52.77 32.89, 52.37 34.41, 51.84 35.86 C51.31 37.32, 50.64 38.75, 49.87 40.09 C49.09 41.43, 48.19 42.72, 47.2 43.9 C46.2 45.09, 45.09 46.2, 43.9 47.2 C42.72 48.19, 41.43 49.09, 40.09 49.87 C38.75 50.64, 37.32 51.31, 35.86 51.84 C34.41 52.37, 32.89 52.77, 31.36 53.04 C29.84 53.31, 28.27 53.45, 26.72 53.45 C25.18 53.45, 23.61 53.31, 22.08 53.04 C20.56 52.77, 19.04 52.37, 17.58 51.84 C16.13 51.31, 14.7 50.64, 13.36 49.87 C12.02 49.09, 10.73 48.19, 9.55 47.2 C8.36 46.2, 7.25 45.09, 6.25 43.9 C5.26 42.72, 4.35 41.43, 3.58 40.09 C2.81 38.75, 2.14 37.32, 1.61 35.86 C1.08 34.41, 0.67 32.89, 0.41 31.36 C0.14 29.84, 0 28.27, 0 26.72 C0 25.18, 0.14 23.61, 0.41 22.08 C0.67 20.56, 1.08 19.04, 1.61 17.58 C2.14 16.13, 2.81 14.7, 3.58 13.36 C4.35 12.02, 5.26 10.73, 6.25 9.55 C7.25 8.36, 8.36 7.25, 9.55 6.25 C10.73 5.26, 12.02 4.35, 13.36 3.58 C14.7 2.81, 16.13 2.14, 17.58 1.61 C19.04 1.08, 20.56 0.67, 22.08 0.41 C23.61 0.14, 25.18 0, 26.72 0 C28.27 0, 29.84 0.14, 31.36 0.41 C32.89 0.67, 34.41 1.08, 35.86 1.61 C37.32 2.14, 38.75 2.81, 40.09 3.58 C41.43 4.35, 42.72 5.26, 43.9 6.25 C45.09 7.25, 46.2 8.36, 47.2 9.55 C48.19 10.73, 49.09 12.02, 49.87 13.36 C50.64 14.7, 51.31 16.13, 51.84 17.58 C52.37 19.04, 52.77 20.56, 53.04 22.08 C53.31 23.61, 53.38 25.95, 53.45 26.72 C53.52 27.5, 53.52 25.95, 53.45 26.72" stroke="none" stroke-width="0" fill="#b2f2bb"></path><path d="M53.45 26.72 C53.45 28.27, 53.31 29.84, 53.04 31.36 C52.77 32.89, 52.37 34.41, 51.84 35.86 C51.31 37.32, 50.64 38.75, 49.87 40.09 C49.09 41.43, 48.19 42.72, 47.2 43.9 C46.2 45.09, 45.09 46.2, 43.9 47.2 C42.72 48.19, 41.43 49.09, 40.09 49.87 C38.75 50.64, 37.32 51.31, 35.86 51.84 C34.41 52.37, 32.89 52.77, 31.36 53.04 C29.84 53.31, 28.27 53.45, 26.72 53.45 C25.18 53.45, 23.61 53.31, 22.08 53.04 C20.56 52.77, 19.04 52.37, 17.58 51.84 C16.13 51.31, 14.7 50.64, 13.36 49.87 C12.02 49.09, 10.73 48.19, 9.55 47.2 C8.36 46.2, 7.25 45.09, 6.25 43.9 C5.26 42.72, 4.35 41.43, 3.58 40.09 C2.81 38.75, 2.14 37.32, 1.61 35.86 C1.08 34.41, 0.67 32.89, 0.41 31.36 C0.14 29.84, 0 28.27, 0 26.72 C0 25.18, 0.14 23.61, 0.41 22.08 C0.67 20.56, 1.08 19.04, 1.61 17.58 C2.14 16.13, 2.81 14.7, 3.58 13.36 C4.35 12.02, 5.26 10.73, 6.25 9.55 C7.25 8.36, 8.36 7.25, 9.55 6.25 C10.73 5.26, 12.02 4.35, 13.36 3.58 C14.7 2.81, 16.13 2.14, 17.58 1.61 C19.04 1.08, 20.56 0.67, 22.08 0.41 C23.61 0.14, 25.18 0, 26.72 0 C28.27 0, 29.84 0.14, 31.36 0.41 C32.89 0.67, 34.41 1.08, 35.86 1.61 C37.32 2.14, 38.75 2.81, 40.09 3.58 C41.43 4.35, 42.72 5.26, 43.9 6.25 C45.09 7.25, 46.2 8.36, 47.2 9.55 C48.19 10.73, 49.09 12.02, 49.87 13.36 C50.64 14.7, 51.31 16.13, 51.84 17.58 C52.37 19.04, 52.77 20.56, 53.04 22.08 C53.31 23.61, 53.38 25.95, 53.45 26.72 C53.52 27.5, 53.52 25.95, 53.45 26.72" stroke="#1e1e1e" stroke-width="1" fill="none"></path></g><g transform="translate(624.5641784667969 640.5729115804043) rotate(0 150.51394653320312 35)"><text x="150.51394653320312" y="0" font-family="Virgil, Segoe UI Emoji" font-size="28px" fill="#1e1e1e" text-anchor="middle" style="white-space: pre;" direction="ltr" dominant-baseline="text-before-edge">Opporitunties in 3 </text><text x="150.51394653320312" y="35" font-family="Virgil, Segoe UI Emoji" font-size="28px" fill="#1e1e1e" text-anchor="middle" style="white-space: pre;" direction="ltr" dominant-baseline="text-before-edge">areas to make money.</text></g><g transform="translate(29.109375 602.572850545248) rotate(0 127.62394714355469 17.5)"><text x="0" y="0" font-family="Virgil, Segoe UI Emoji" font-size="28px" fill="#1e1e1e" text-anchor="start" style="white-space: pre;" direction="ltr" dominant-baseline="text-before-edge">Modal for Analysis</text></g><g stroke-linecap="round"><g transform="translate(292.9007568359375 614.6902369493746) rotate(0 90.11993408203125 -13.141447339516162)"><path d="M0 0 C30.04 -4.38, 150.2 -21.9, 180.24 -26.28 M0 0 C30.04 -4.38, 150.2 -21.9, 180.24 -26.28" stroke="#1e1e1e" stroke-width="1" fill="none"></path></g><g transform="translate(292.9007568359375 614.6902369493746) rotate(0 90.11993408203125 -13.141447339516162)"><path d="M158.23 -14.43 C164.45 -17.78, 170.66 -21.13, 180.24 -26.28 M158.23 -14.43 C166.07 -18.65, 173.91 -22.88, 180.24 -26.28" stroke="#1e1e1e" stroke-width="1" fill="none"></path></g><g transform="translate(292.9007568359375 614.6902369493746) rotate(0 90.11993408203125 -13.141447339516162)"><path d="M155.76 -31.35 C162.68 -29.92, 169.59 -28.49, 180.24 -26.28 M155.76 -31.35 C164.48 -29.55, 173.2 -27.74, 180.24 -26.28" stroke="#1e1e1e" stroke-width="1" fill="none"></path></g></g><mask></mask><g transform="translate(10 293.0931657178571) rotate(0 42.61598205566406 17.5)"><text x="0" y="0" font-family="Virgil, Segoe UI Emoji" font-size="28px" fill="#1e1e1e" text-anchor="start" style="white-space: pre;" direction="ltr" dominant-baseline="text-before-edge">Tasks</text></g><g stroke-linecap="round"><g transform="translate(103.77545166015625 313.7858402997981) rotate(0 175.12789916992188 -19.395572475135396)"><path d="M0 0 C58.38 -6.47, 291.88 -32.33, 350.26 -38.79 M0 0 C58.38 -6.47, 291.88 -32.33, 350.26 -38.79" stroke="#1e1e1e" stroke-width="1" fill="none"></path></g><g transform="translate(103.77545166015625 313.7858402997981) rotate(0 175.12789916992188 -19.395572475135396)"><path d="M327.85 -27.71 C333.89 -30.7, 339.93 -33.68, 350.26 -38.79 M327.85 -27.71 C334.83 -31.16, 341.82 -34.62, 350.26 -38.79" stroke="#1e1e1e" stroke-width="1" fill="none"></path></g><g transform="translate(103.77545166015625 313.7858402997981) rotate(0 175.12789916992188 -19.395572475135396)"><path d="M325.97 -44.7 C332.51 -43.11, 339.06 -41.52, 350.26 -38.79 M325.97 -44.7 C333.54 -42.86, 341.11 -41.02, 350.26 -38.79" stroke="#1e1e1e" stroke-width="1" fill="none"></path></g></g><mask></mask><g transform="translate(52.42706298828125 187.87598495406382) rotate(0 59.65397644042969 17.5)"><text x="0" y="0" font-family="Virgil, Segoe UI Emoji" font-size="28px" fill="#1e1e1e" text-anchor="start" style="white-space: pre;" direction="ltr" dominant-baseline="text-before-edge">Roadmap</text></g><g stroke-linecap="round"><g transform="translate(180.27850341796875 207.09959752687064) rotate(0 158.14730228140434 -18.70471149469404)"><path d="M0 0 C52.72 -6.23, 263.58 -31.17, 316.29 -37.41 M0 0 C52.72 -6.23, 263.58 -31.17, 316.29 -37.41" stroke="#1e1e1e" stroke-width="1" fill="none"></path></g><g transform="translate(180.27850341796875 207.09959752687064) rotate(0 158.14730228140434 -18.70471149469404)"><path d="M293.97 -26.16 C301.05 -29.73, 308.12 -33.29, 316.29 -37.41 M293.97 -26.16 C302.82 -30.62, 311.67 -35.08, 316.29 -37.41" stroke="#1e1e1e" stroke-width="1" fill="none"></path></g><g transform="translate(180.27850341796875 207.09959752687064) rotate(0 158.14730228140434 -18.70471149469404)"><path d="M291.96 -43.14 C299.67 -41.32, 307.39 -39.51, 316.29 -37.41 M291.96 -43.14 C301.6 -40.87, 311.25 -38.6, 316.29 -37.41" stroke="#1e1e1e" stroke-width="1" fill="none"></path></g></g><mask></mask></svg>